<svg width="200" height="200" viewBox="0 0 200 200" fill="none" xmlns="http://www.w3.org/2000/svg">
<path d="M62.0301 84.6225C62.0301 83.518 62.9255 82.6225 64.0301 82.6225H86.9724C88.077 82.6225 88.9724 83.518 88.9724 84.6225V197.854C88.9724 198.959 88.077 199.854 86.9724 199.854H64.0301C62.9255 199.854 62.0301 198.959 62.0301 197.854V84.6225Z" fill="url(#paint0_linear_1281_19)"/>
<path d="M172.306 97L199.297 82.8952L199.249 197.855C199.248 198.959 198.353 199.854 197.249 199.854H174.306C173.201 199.854 172.306 198.959 172.306 197.854L172.306 97Z" fill="url(#paint1_linear_1281_19)"/>
<path d="M68.3752 3.48676C67.0125 2.26066 67.8798 0 69.7129 0H106.376C106.87 0 107.346 0.182754 107.713 0.513063L199.297 82.8952L172.306 97L68.3752 3.48676Z" fill="url(#paint2_linear_1281_19)"/>
<path d="M90.5582 1.1664C91.1218 0.657143 91.9251 0.511064 92.6319 0.789341L117.025 10.3939C118.399 10.9352 118.733 12.7289 117.644 13.7281L26.9424 97L0.000139229 83L90.5582 1.1664Z" fill="url(#paint3_linear_1281_19)"/>
<path d="M0.000139229 83L26.9424 97L26.9424 197.854C26.9424 198.959 26.047 199.854 24.9424 199.854H2.00014C0.895568 199.854 0.000139229 198.959 0.000139229 197.854L0.000139229 83Z" fill="url(#paint4_linear_1281_19)"/>
<path d="M63.99 86.0543C62.7791 84.7805 63.682 82.6763 65.4395 82.6763L88.112 82.6763C88.6616 82.6763 89.1869 82.9024 89.5647 83.3016L196.806 196.625C198.013 197.9 197.109 200 195.354 200L173.164 200C172.616 200 172.092 199.775 171.714 199.378L63.99 86.0543Z" fill="url(#paint5_linear_1281_19)"/>
<defs>
<linearGradient id="paint0_linear_1281_19" x1="0" y1="100" x2="200" y2="100" gradientUnits="userSpaceOnUse">
<stop stop-color="#B742FF"/>
<stop offset="0.5" stop-color="#3663D7"/>
<stop offset="1" stop-color="#008DA0"/>
</linearGradient>
<linearGradient id="paint1_linear_1281_19" x1="0" y1="100" x2="200" y2="100" gradientUnits="userSpaceOnUse">
<stop stop-color="#B742FF"/>
<stop offset="0.5" stop-color="#3663D7"/>
<stop offset="1" stop-color="#008DA0"/>
</linearGradient>
<linearGradient id="paint2_linear_1281_19" x1="0" y1="100" x2="200" y2="100" gradientUnits="userSpaceOnUse">
<stop stop-color="#B742FF"/>
<stop offset="0.5" stop-color="#3663D7"/>
<stop offset="1" stop-color="#008DA0"/>
</linearGradient>
<linearGradient id="paint3_linear_1281_19" x1="0" y1="100" x2="200" y2="100" gradientUnits="userSpaceOnUse">
<stop stop-color="#B742FF"/>
<stop offset="0.5" stop-color="#3663D7"/>
<stop offset="1" stop-color="#008DA0"/>
</linearGradient>
<linearGradient id="paint4_linear_1281_19" x1="0" y1="100" x2="200" y2="100" gradientUnits="userSpaceOnUse">
<stop stop-color="#B742FF"/>
<stop offset="0.5" stop-color="#3663D7"/>
<stop offset="1" stop-color="#008DA0"/>
</linearGradient>
<linearGradient id="paint5_linear_1281_19" x1="0" y1="100" x2="200" y2="100" gradientUnits="userSpaceOnUse">
<stop stop-color="#B742FF"/>
<stop offset="0.5" stop-color="#3663D7"/>
<stop offset="1" stop-color="#008DA0"/>
</linearGradient>
</defs>
</svg>
