<svg width="200" height="200" viewBox="0 0 200 200" fill="none" xmlns="http://www.w3.org/2000/svg">
<path d="M62.0299 84.6224C62.0299 83.5179 62.9254 82.6224 64.0299 82.6224H86.9722C88.0768 82.6224 88.9722 83.5179 88.9722 84.6224V197.854C88.9722 198.958 88.0768 199.854 86.9722 199.854H64.0299C62.9254 199.854 62.0299 198.958 62.0299 197.854V84.6224Z" fill="url(#paint0_linear_1281_19)"/>
<path d="M172.305 96.9999L199.297 82.8951L199.249 197.855C199.248 198.959 198.353 199.854 197.249 199.854H174.305C173.201 199.854 172.305 198.958 172.305 197.854L172.305 96.9999Z" fill="url(#paint1_linear_1281_19)"/>
<path d="M79.6712 13.9831C78.7867 13.1905 78.7839 11.8061 79.6651 11.0098L91.478 0.334961H104.745C105.232 0.334961 105.701 0.512267 106.067 0.833685L199.297 82.8951L172.305 96.9999L79.6712 13.9831Z" fill="url(#paint2_linear_1281_19)"/>
<path d="M91.478 0.334961L117.024 10.3938C118.399 10.9351 118.733 12.7288 117.644 13.728L26.9423 96.9999L0 82.9999L91.478 0.334961Z" fill="url(#paint3_linear_1281_19)"/>
<path d="M0 82.9999L26.9423 96.9999L26.9423 197.854C26.9423 198.958 26.0469 199.854 24.9423 199.854H2C0.895428 199.854 0 198.958 0 197.854L0 82.9999Z" fill="url(#paint4_linear_1281_19)"/>
<path d="M63.9898 86.0542C62.7789 84.7804 63.6819 82.6762 65.4394 82.6762L88.1119 82.6762C88.6614 82.6762 89.1868 82.9023 89.5645 83.3015L196.806 196.625C198.013 197.9 197.109 200 195.354 200L173.164 200C172.616 200 172.092 199.775 171.714 199.378L63.9898 86.0542Z" fill="url(#paint5_linear_1281_19)"/>
<defs>
<linearGradient id="paint0_linear_1281_19" x1="0" y1="100" x2="200" y2="100" gradientUnits="userSpaceOnUse">
<stop stop-color="#B742FF"/>
<stop offset="0.07" stop-color="#3663D7"/>
<stop offset="0.92" stop-color="#3067D1"/>
<stop offset="1" stop-color="#008DA0"/>
</linearGradient>
<linearGradient id="paint1_linear_1281_19" x1="0" y1="100" x2="200" y2="100" gradientUnits="userSpaceOnUse">
<stop stop-color="#B742FF"/>
<stop offset="0.07" stop-color="#3663D7"/>
<stop offset="0.92" stop-color="#3067D1"/>
<stop offset="1" stop-color="#008DA0"/>
</linearGradient>
<linearGradient id="paint2_linear_1281_19" x1="0" y1="100" x2="200" y2="100" gradientUnits="userSpaceOnUse">
<stop stop-color="#B742FF"/>
<stop offset="0.07" stop-color="#3663D7"/>
<stop offset="0.92" stop-color="#3067D1"/>
<stop offset="1" stop-color="#008DA0"/>
</linearGradient>
<linearGradient id="paint3_linear_1281_19" x1="0" y1="100" x2="200" y2="100" gradientUnits="userSpaceOnUse">
<stop stop-color="#B742FF"/>
<stop offset="0.07" stop-color="#3663D7"/>
<stop offset="0.92" stop-color="#3067D1"/>
<stop offset="1" stop-color="#008DA0"/>
</linearGradient>
<linearGradient id="paint4_linear_1281_19" x1="0" y1="100" x2="200" y2="100" gradientUnits="userSpaceOnUse">
<stop stop-color="#B742FF"/>
<stop offset="0.07" stop-color="#3663D7"/>
<stop offset="0.92" stop-color="#3067D1"/>
<stop offset="1" stop-color="#008DA0"/>
</linearGradient>
<linearGradient id="paint5_linear_1281_19" x1="0" y1="100" x2="200" y2="100" gradientUnits="userSpaceOnUse">
<stop stop-color="#B742FF"/>
<stop offset="0.07" stop-color="#3663D7"/>
<stop offset="0.92" stop-color="#3067D1"/>
<stop offset="1" stop-color="#008DA0"/>
</linearGradient>
</defs>
</svg>
